<svg xmlns="http://www.w3.org/2000/svg" viewBox="0 0 465.84 230.47"><path d="M112.08,198.343A20.75,20.75,0,1,1,91.32,177.6h.01A20.75,20.75,0,0,1,112.08,198.343Z" fill="#3f515c"/><path d="M99.74,198.343a8.59,8.59,0,1,1-8.6-8.58h.02A8.59,8.59,0,0,1,99.74,198.343Z" fill="#fcbf7c"/><path d="M313.37,198.343a20.75,20.75,0,1,1-20.76-20.74h.02A20.75,20.75,0,0,1,313.37,198.343Z" fill="#3f515c"/><path d="M301,198.343a8.58,8.58,0,1,1-8.58-8.58h0A8.59,8.59,0,0,1,301,198.343Z" fill="#fcbf7c"/><path d="M332.92,93v85.67l-14.19,1.58-10.52-13.67s-17.86-1.58-20-.52-18.92,12.61-18.92,12.61-40-.27-79.44-.4c-38.17-.13-75.87-.11-76.65.4-1.58,1-8.41-12.09-10-12.09S87.48,165,87.48,165l-16.3,8.94h-66V38.593L38.6,5.213l118.53.24,150,.29Z" fill="#492b2b"/><path d="M332.92,93v85.67l-14.19,1.58-10.52-13.67s-17.86-1.58-20-.52-18.92,12.61-18.92,12.61l-115.1-.4c-6-31.79-26.43-140.41-32.74-172.81l185.68.3Z" fill="#f4821f"/><polygon points="166.84 58.303 166.84 110.853 54.9 110.853 54.9 57.773 70.92 57.843 166.84 58.303" fill="#626363"/><polygon points="54.9 29.393 53.32 44.633 167.36 45.163 167.36 28.343 54.9 29.393" fill="#ef554c"/><path d="M55.6,45s-2.11,17.5,6.3,17.5S71.36,51.643,71,46A87.512,87.512,0,0,1,55.6,45Z" fill="#ef554c"/><path d="M71.36,45s-2.1,17.5,6.31,17.5,9.46-10.86,9.11-16.5A87.745,87.745,0,0,1,71.36,45Z" fill="#faaf40"/><path d="M87.13,45S85,62.5,93.44,62.5s9.46-10.86,9.11-16.5A87.547,87.547,0,0,1,87.13,45Z" fill="#ef554c"/><path d="M102.9,45s-2.1,17.52,6.3,17.52,9.46-10.86,9.11-16.47A87.548,87.548,0,0,1,102.9,45Z" fill="#faaf40"/><path d="M118.66,45s-2.1,17.5,6.34,17.5,9.46-10.86,9.11-16.47A87.711,87.711,0,0,1,118.66,45Z" fill="#ef554c"/><path d="M134.43,45s-2.1,17.52,6.31,17.52,9.46-10.86,9.1-16.47A87.644,87.644,0,0,1,134.43,45Z" fill="#faaf40"/><path d="M150.2,45s-2.11,17.52,6.3,17.52S166,51.643,165.61,46A87.53,87.53,0,0,1,150.2,45Z" fill="#ef554c"/><polygon points="70.92 57.843 70.92 110.853 54.9 110.853 54.9 57.773 70.92 57.843" fill="#343432"/><rect x="43.6" y="108.483" width="132.97" height="12.09" fill="#faaf40"/><polygon points="192.59 28.863 192.59 116.113 251.81 116.113 251.81 27.463 192.59 28.863" fill="#ef554c"/><polygon points="444.86 87.203 329.76 87.203 307.16 5.743 420.69 5.743 444.86 87.203" fill="#fcbf7c"/><polygon points="329.76 87.203 329.76 110.853 447.49 110.853 447.49 107.173 447.49 87.203 329.76 87.203" fill="#fcbf7c"/><polygon points="363.93 109.803 363.93 177.603 332.92 177.603 332.92 110.853 363.93 109.803" fill="#ef554c"/><polygon points="331.87 141.693 361.12 141.693 359.9 110.853 332.92 110.853 331.87 141.693" fill="#fff"/><polygon points="419.23 110.923 419.74 142.213 444.36 142.213 444.36 110.853 419.23 110.923" fill="#fff"/><polygon points="419.74 142.213 419.74 175.233 445.91 175.233 445.91 141.073 419.74 142.213" fill="#ef554c"/><polygon points="361.12 141.693 419.74 141.693 419.74 175.233 359.98 175.233 361.12 141.693" fill="#fcbf7c"/><polygon points="361.65 111.383 361.65 141.693 417.54 141.693 417.54 109.803 361.65 111.383" fill="#92716d"/><polygon points="3.04 177.423 3.04 205.803 57 205.803 68.21 178.473 3.04 177.423" fill="#92716d"/><polygon points="116.21 179.183 126.37 204.403 260.92 204.403 274.93 176.373 116.21 179.183" fill="#92716d"/><polygon points="318.03 178.123 329.59 204.753 371.63 204.753 371.63 178.123 318.03 178.123" fill="#92716d"/><polygon points="371.63 178.123 371.63 204.753 461.68 204.753 461.68 177.773 371.63 178.123" fill="#805d5a"/><polygon points="444.86 87.203 411.39 87.203 384.43 5.743 420.69 5.743 444.86 87.203" fill="#e0a76e"/><rect x="411.39" y="87.203" width="36.11" height="21.55" fill="#e0a76e"/><polygon points="401.42 110.503 401.42 140.633 419.74 140.633 419.74 110.923 401.42 110.503" fill="#775755"/><polygon points="416.83 178.823 416.83 205.803 461.68 205.803 461.68 177.773 416.83 178.823" fill="#775755"/><rect x="234.99" y="27.113" width="16.82" height="89" fill="#d64643"/><polygon points="399.31 140.993 399.31 176.723 416.83 176.723 416.83 141.693 399.31 140.993" fill="#e0a76e"/><polygon points="315.92 89.133 315.92 174.973 310.32 167.963 309.97 88.083 315.92 89.133" fill="#e07026"/><path d="M332.39,178.313v-52l-1.7-39L306.84,5.093,37.68,4.733,4.73,37.643v167.19H71" fill="none" stroke="#3f1f20" stroke-miterlimit="10" stroke-width="9.46"/><polyline points="352.31 204.833 325.03 204.833 319.54 204.833" fill="none" stroke="#3f1f20" stroke-miterlimit="10" stroke-width="9.46"/><polyline points="271.07 204.833 262.81 204.833 130.91 204.833 121.97 204.833 112.35 204.833" fill="none" stroke="#3f1f20" stroke-miterlimit="10" stroke-width="9.46"/><polyline points="192.53 178.383 192.53 28.223 252.1 28.223 252.1 177.853" fill="none" stroke="#3f1f20" stroke-miterlimit="10" stroke-width="6.31"/><path d="M335.3,204.433l-10.22.16-15.43.23a16.562,16.562,0,0,0,1.15-6.12,16.88,16.88,0,1,0-32.61,6.12l-15.43-.23-10.13-.16,10.91-27.26a30.279,30.279,0,0,1,28.1-19h4.65a30.279,30.279,0,0,1,28.1,19Z" fill="#3f1f20"/><path d="M131.2,205.573l-9.42.15L106.1,206c.17-.36.34-.74.48-1.12a16.87,16.87,0,1,0-31.44-.05c.16.39.32.78.49,1.15l-15.69-.24-11.38-.17.29-.74,10.62-26.52a30.239,30.239,0,0,1,28.11-19h4.63a30.289,30.289,0,0,1,28.11,19l10.61,26.52Z" fill="#3f1f20"/><line x1="4.03" y1="145.963" x2="191.83" y2="145.963" fill="none" stroke="#3f1f20" stroke-miterlimit="10" stroke-width="6.31"/><line x1="252.8" y1="142.463" x2="330.47" y2="142.463" fill="none" stroke="#3f1f20" stroke-miterlimit="10" stroke-width="6.31"/><polygon points="262.61 25.413 298.06 25.413 316.98 89.483 262.61 89.483 262.61 25.413" fill="#3f1f20"/><rect x="203.05" y="36.623" width="38.54" height="68.7" fill="#3f1f20"/><polygon points="311.93 178.313 371.58 178.313 371.58 204.833 319.55 204.833 311.93 178.313" fill="none" stroke="#3f1f20" stroke-miterlimit="10" stroke-width="9.4"/><line x1="280.38" y1="178.223" x2="108.01" y2="178.223" fill="none" stroke="#3f1f20" stroke-miterlimit="10" stroke-width="9.4"/><line x1="68.85" y1="177.853" x2="7.89" y2="177.853" fill="none" stroke="#3f1f20" stroke-miterlimit="10" stroke-width="9.4"/><rect x="53.84" y="29.273" width="113" height="15.24" fill="none" stroke="#3f1f20" stroke-miterlimit="10" stroke-width="6.31"/><polyline points="53.84 44.513 53.84 108.473 166.84 108.473 166.84 35.573" fill="none" stroke="#3f1f20" stroke-miterlimit="10" stroke-width="6.31"/><rect x="43.6" y="108.473" width="132.83" height="13.14" fill="none" stroke="#3f1f20" stroke-miterlimit="10" stroke-width="6.46"/><path d="M62.82,61.593h0a7.941,7.941,0,0,1-7.93-7.93v-9H70.75v9a7.93,7.93,0,0,1-7.93,7.93Z" fill="none" stroke="#3f1f20" stroke-miterlimit="10" stroke-width="6.84"/><path d="M78.68,61.593h0a7.941,7.941,0,0,1-7.93-7.93v-9H86.61v9a7.92,7.92,0,0,1-7.91,7.93Z" fill="none" stroke="#3f1f20" stroke-miterlimit="10" stroke-width="6.84"/><path d="M94.55,61.593h0a7.93,7.93,0,0,1-7.93-7.93h0v-9h15.86v9a7.93,7.93,0,0,1-7.93,7.93Z" fill="none" stroke="#3f1f20" stroke-miterlimit="10" stroke-width="6.84"/><path d="M110.41,61.593h0a7.93,7.93,0,0,1-7.93-7.93h0v-9h15.86v9a7.93,7.93,0,0,1-7.93,7.93Z" fill="none" stroke="#3f1f20" stroke-miterlimit="10" stroke-width="6.84"/><path d="M126.27,61.593h0a7.93,7.93,0,0,1-7.93-7.93h0v-9H134.2v9a7.93,7.93,0,0,1-7.93,7.93Z" fill="none" stroke="#3f1f20" stroke-miterlimit="10" stroke-width="6.84"/><path d="M142.13,61.593h0a7.93,7.93,0,0,1-7.93-7.93v-9h15.86v9a7.93,7.93,0,0,1-7.93,7.93Z" fill="none" stroke="#3f1f20" stroke-miterlimit="10" stroke-width="6.84"/><path d="M158,61.593h0a7.93,7.93,0,0,1-7.93-7.93v-9h15.86v9a7.93,7.93,0,0,1-7.93,7.93Z" fill="none" stroke="#3f1f20" stroke-miterlimit="10" stroke-width="6.84"/><line x1="190.74" y1="117.253" x2="251.42" y2="117.253" fill="none" stroke="#3f1f20" stroke-miterlimit="10" stroke-width="6.84"/><polyline points="306.84 5.093 421.03 5.093 444.89 87.383 446.59 178.313" fill="none" stroke="#3f1f20" stroke-miterlimit="10" stroke-width="9.46"/><rect x="371.58" y="178.313" width="89.53" height="26.17" fill="none" stroke="#3f1f20" stroke-miterlimit="10" stroke-width="9.46"/><line x1="330.7" y1="87.383" x2="444.89" y2="87.383" fill="none" stroke="#3f1f20" stroke-miterlimit="10" stroke-width="6.31"/><path d="M90.86,167a31.72,31.72,0,0,0-31.72,31.7,30.856,30.856,0,0,0,.6,6.13,4.075,4.075,0,0,0,.18.91,31.71,31.71,0,0,0,61.86,0,8.564,8.564,0,0,0,.19-.88,30.856,30.856,0,0,0,.6-6.13A31.71,31.71,0,0,0,90.88,167Zm15.24,39a16.89,16.89,0,0,1-30.49,0c-.17-.37-.33-.76-.49-1.15a16.88,16.88,0,1,1,31.46,0C106.44,205.213,106.27,205.593,106.1,206Z" fill="#3f1f20"/><path d="M158.75,205.083a31.73,31.73,0,0,0,62.16,0Z" fill="#3f1f20"/><path d="M382.71,205.083a31.72,31.72,0,0,0,62.15,0Z" fill="#3f1f20"/><path d="M293.93,167a31.719,31.719,0,0,0-31.73,31.7,30.89,30.89,0,0,0,.56,5.89,1.055,1.055,0,0,0,.06.24,31.7,31.7,0,0,0,62.21,0,2,2,0,0,0,.06-.24A31.716,31.716,0,0,0,293.93,167Zm0,48.59a16.9,16.9,0,0,1-15.74-10.75h0a16.88,16.88,0,1,1,32.61-6.12,16.562,16.562,0,0,1-1.15,6.12h0a16.871,16.871,0,0,1-15.72,10.74Z" fill="#3f1f20"/><polygon points="311.37 27.113 426.29 26.413 444.89 87.383 330.69 87.383 311.37 27.113" fill="#3f1f20"/><line x1="331.87" y1="110.853" x2="444.86" y2="110.853" fill="none" stroke="#3f1f20" stroke-miterlimit="10" stroke-width="6.31"/><line x1="331.87" y1="141.333" x2="444.86" y2="141.333" fill="none" stroke="#3f1f20" stroke-miterlimit="10" stroke-width="6.31"/><line x1="361.83" y1="110.333" x2="361.83" y2="177.603" fill="none" stroke="#3f1f20" stroke-miterlimit="10" stroke-width="6.31"/><line x1="418.58" y1="110.333" x2="418.58" y2="177.603" fill="none" stroke="#3f1f20" stroke-miterlimit="10" stroke-width="6.31"/></svg>