<svg xmlns="http://www.w3.org/2000/svg" viewBox="0 0 256.647 134.266"><path d="M248.756,134.254a95.58,95.58,0,0,0-.442-9.954q.484,4.991,1.12,9.954h3.078c0-3.049-.074-6.1-.212-9.145a1.6,1.6,0,0,0,1.128-1.166c.827-16.725.128-33.468.1-50.2-.015-8.043-.174-16.086-.246-24.128-.067-7.483.368-15.043.107-22.506-.006-.179-.275-.03-.285.094-.573,7.283-1.915,14.528-2.47,21.834-.645,8.483-.875,16.984-.982,25.491q-.072,5.6-.021,11.2c-.569-15.383-.326-30.762-.778-46.138-.006-.2-.326-.04-.333.109-.7,15.391-2.137,30.67-2.059,46.106.044,8.634.31,17.307.854,25.959-.537-5.493-1.25-10.982-1.7-16.475-.574-6.978-1.351-13.942-1.832-20.928-.435-6.289-.015-13.094-1.124-19.283-.03-.166-.24-.006-.239.108.046,3.218-.706,6.584-.975,9.8-.288,3.456-.506,6.921-.723,10.382a169.584,169.584,0,0,0-.016,20.552c.225,3.8.433,7.637.69,11.481-.854-7-1.552-13.991-1.943-21.063-.021-.36-.553-.06-.571.187-.028.379-.063.757-.093,1.136q.162-14.714,1.513-29.381c.02-.213-.258-.085-.285.058q-3.45,18.226-5.174,36.706c-.016-7.563.294-15.09.525-22.689.008-.246-.314-.109-.333.067-1.193,10.758-2.8,21.313-2.714,32.185a164.982,164.982,0,0,0,2.405,29.652Z" fill="#73b634"/><path d="M19.043,75.951c2.173,11.944,3.17,24.109,4.263,36.188.278,3.071.461,6.254.664,9.473-.05,3.588-.166,7.174-.293,10.76q-.224.938-.415,1.882H244.27A36.045,36.045,0,0,0,245.8,121.81l-.012-.254c3.2-18.626,3.1-37.478,4.118-56.313.726-13.481,2.188-26.981,4.089-40.389.23-1.494.458-2.987.7-4.479a.183.183,0,0,0-.031-.152q.936-6.268,1.979-12.5c.021-.126-.161-.074-.185.014-3.31,12.666-7.065,25.526-9.879,38.487-.577,2.027-1.145,4.057-1.683,6.094.93-7.595,2.732-15.069,3.4-22.674.028-.322-.386-.126-.429.087-1.707,8.479-4.814,16.7-6.886,25.1-.4,1.634-.773,3.277-1.132,4.922a282.586,282.586,0,0,1,6.221-28.332c1.386-4.982,3.024-9.889,4.469-14.854,1.286-4.42,3.444-8.281,5.124-12.519.1-.248-.233-.243-.331-.073-2.355,4.073-5.235,7.946-7.748,11.94a92.5,92.5,0,0,0-6.725,13.758,175.334,175.334,0,0,0-6.19,17.4q1.192-5.874,2.354-11.753c1.46-7.454,4.092-14.265,6.281-21.487.118-.392-.381-.311-.49-.032-1.154,2.928-2.424,5.8-3.7,8.674a.083.083,0,0,0-.064.026c-2.391,2.212-3.243,6.373-4.64,9.249-.071.146-.136.3-.207.443A166.932,166.932,0,0,1,242.341.355c.2-.524-.5-.408-.669-.043a274.323,274.323,0,0,0-13.85,38.959c-1.176,3.484-2.282,6.995-3.272,10.558a284.532,284.532,0,0,0-6.378,30.1c-.489,2.978-.912,5.971-1.294,8.971a1.814,1.814,0,0,0-.2.053c1.211-9.89,2.3-19.8,3.79-29.6q2.171-14.283,4.513-28.539c.8-4.88,1.647-9.721,2.61-14.571.632-3.178,2.14-7.162,1.6-10.414-.033-.2-.288-.008-.285.129.04,1.813-1.015,4.283-1.487,6.038-.665,2.472-1.543,4.87-2.445,7.262-1.841,4.879-3.421,9.829-4.872,14.837-1.893,6.533-3.521,13.182-4.932,19.859,1.065-10.4,2.365-20.751,3.951-31.165.024-.158-.2-.094-.23.017-3.291,13.323-6.533,26.543-8.9,39.994,1.357-11.11,3.041-22.212,5.066-33.169.071-.381-.475-.211-.553.04q-4.1,13.2-7.138,26.576c1.289-12.122,3.1-24.262,6.593-35.8.12-.395-.376-.3-.49-.032a153.989,153.989,0,0,0-7.81,23.951q.251-2.35.509-4.7c1.019-9.1,3.023-18.3,3.193-27.458,0-.214-.262-.09-.285.058-1.412,9.01-4.632,17.726-6.563,26.646q-2.031,9.372-3.412,18.851c.794-9.343,1.857-18.646,3.265-27.868.063-.417-.514-.174-.572.115-3.367,16.674-5.129,33.546-6.455,50.517-.5,6.437-.7,12.9-.827,19.355.006-9.526-.1-19.056.059-28.586q.255-14.824,1.028-29.648c.5-9.739,1.848-19.458,2.2-29.189.011-.317-.4-.139-.429.087-1.27,9.95-3.511,19.809-4.963,29.749-1.261,8.637-2.19,17.294-2.644,26-.295-9.049-.794-18.09-1.054-27.139q-.222-7.8-.106-15.6c.063-4.4.806-8.739.71-13.145,0-.236-.37-.042-.381.125-.314,4.5-1.387,8.875-1.934,13.344-.607,4.963-1.135,9.943-1.653,14.916-1,9.608-1.426,19.258-1.5,28.916-.073,9.511.115,19,.727,28.456a2.228,2.228,0,0,0-.723.463,3.954,3.954,0,0,0-.447.575q-.577-14.826-1.228-29.649c-.8-18.282-2.421-36.492-3.46-54.756-.012-.208-.326-.038-.333.109-.69,13.345-.976,26.806-.816,40.284-.938-5.825-2.039-11.629-3.5-17.259A117.447,117.447,0,0,0,170.2,25.66c-1.331-3.5-2.875-7.42-5.567-10.093-.1-.1-.268.1-.189.2,2.485,3.274,3.619,8.135,4.727,12.05a140.036,140.036,0,0,1,2.925,14.166c.191,1.1.369,2.2.543,3.3.365,5.419-.083,10.931-.256,16.333-.236,7.39-.882,14.735-1.41,22.107-.481,6.72-1.107,13.57-1.5,20.428,0-.147,0-.3,0-.443.112-9.127.531-18.21.292-27.343-.439-16.8-1.117-34.964-6.906-50.914-.081-.223-.432.026-.38.218,4.56,17.2,3.228,35.98,3.037,53.6-.078,7.228-.413,14.457-.739,21.681,0-3.668-.024-7.335-.1-11-.2-9.114-1.042-18.242-2.019-27.3-.88-8.165-1.385-16.717-3.862-24.594-.062-.2-.372.022-.333.19,1.865,8.153,1.7,16.812,1.977,25.128.109,3.27.15,6.536.156,9.8-.452-5.411-.951-10.814-1.29-16.2A390.653,390.653,0,0,0,153.72,8.557c-.02-.107-.2,0-.195.086.669,13.533,1.126,27.076,1.717,40.612-1.307-7.534-2.843-15.039-4.716-22.454q1.353-9.843,3-19.612c.021-.126-.162-.074-.184.013-1.3,4.976-2.67,9.982-4.025,15.012-.163-.6-.322-1.2-.491-1.791-.08-.282-.526.032-.476.272q.308,1.467.587,2.933-.746,2.782-1.48,5.574c-.7-3.3-1.447-6.711-2.306-10.126.89-2,1.823-3.973,2.642-6.04.1-.248-.234-.243-.332-.073-.861,1.489-1.792,2.95-2.75,4.4a83.411,83.411,0,0,0-5.632-15.753c-.066-.133-.275.016-.238.136,1.543,4.963,1.934,10.2,2.739,15.316q.318,2.018.629,4.035c-.845,1.257-1.683,2.516-2.483,3.787-.769-1.546-1.582-3.073-2.458-4.57-.059-.1-.234.014-.19.108.792,1.724,1.5,3.483,2.168,5.256a78.989,78.989,0,0,0-4.749,9.435,12.069,12.069,0,0,0-.837-1.263c-.049-.063-.144.053-.123.11.234.631.432,1.289.616,1.956q-.587,1.368-1.162,2.743c-.744,1.78-1.444,3.575-2.124,5.377q-.533-1.32-1.077-2.637c1.511-6.342,3.744-12.3,5.645-18.577.118-.392-.38-.31-.491-.032-2.032,5.156-4.418,10.148-6.592,15.243-.342-.783-.693-1.562-1.044-2.341a154.963,154.963,0,0,1,7.158-26.349c.2-.524-.5-.408-.669-.043-3.212,7.166-6.049,14.474-8.582,21.883q-1.156-2.414-2.388-4.8a9.272,9.272,0,0,1,1.565-3.8c.066-.081-.012-.152-.088-.082a9.718,9.718,0,0,0-2,2.847q-1.736-3.333-3.614-6.621c-.1-.18-.379.065-.311.226.381.9.743,1.8,1.107,2.7a.239.239,0,0,0-.072.089c-1.391,3.75-2.787,7.483-4.134,11.23-.1-.163-.192-.329-.291-.491s-.39.066-.311.226c.137.276.265.555.4.833q-.823,2.3-1.616,4.612-1.71-2.763-3.528-5.462c.1-.626.2-1.253.3-1.879.8-4.88,1.647-9.721,2.611-14.571.632-3.178,2.14-7.162,1.6-10.414-.033-.2-.289-.008-.286.129.041,1.813-1.015,4.283-1.487,6.038-.666,2.472-1.543,4.87-2.445,7.262-1.162,3.08-2.211,6.19-3.2,9.323-.949-1.263-1.948-2.544-2.938-3.845.1-.649.185-1.3.284-1.946.024-.158-.2-.094-.23.017q-.187.755-.372,1.507a44.474,44.474,0,0,1-5.641-9.064c-.106-.249-.518.061-.46.269,1.108,3.986,3.375,7.826,5.428,11.527-2.924,11.892-5.739,23.731-7.855,35.754,1.357-11.11,3.041-22.212,5.066-33.169.071-.381-.475-.211-.553.04q-4.095,13.2-7.138,26.576c1.288-12.122,3.1-24.262,6.592-35.8.12-.395-.375-.3-.49-.032a154.1,154.1,0,0,0-7.81,23.951c.167-1.567.333-3.135.509-4.7,1.019-9.1,3.023-18.3,3.194-27.458,0-.214-.263-.09-.286.058-1.411,9.01-4.631,17.726-6.563,26.646q-2.031,9.372-3.413,18.851c.794-9.343,1.857-18.646,3.266-27.868.063-.417-.514-.174-.572.115-3.367,16.674-5.128,33.546-6.455,50.517-.5,6.437-.7,12.9-.827,19.355.006-9.526-.105-19.056.059-28.586q.255-14.824,1.028-29.648c.5-9.739,1.848-19.458,2.2-29.189.011-.317-.4-.139-.429.087-1.271,9.95-3.511,19.809-4.963,29.749-1.261,8.637-2.19,17.294-2.643,26-.3-9.049-.8-18.09-1.054-27.139q-.222-7.8-.106-15.6c.063-4.4.806-8.739.71-13.145,0-.236-.37-.042-.381.125-.314,4.5-1.387,8.875-1.934,13.344-.606,4.963-1.135,9.943-1.653,14.916-1,9.608-1.426,19.258-1.5,28.916-.075,9.8.128,19.584.786,29.33-.008,0-.018.006-.026.011a3.961,3.961,0,0,0-1.171.985q-.593-15.242-1.259-30.48C66.628,51.274,65,33.064,63.965,14.8c-.012-.208-.326-.038-.333.109-.69,13.345-.976,26.806-.816,40.284-.938-5.825-2.039-11.629-3.5-17.259a117.447,117.447,0,0,0-3.873-12.275c-1.331-3.5-2.875-7.42-5.567-10.093-.1-.1-.268.1-.189.2,2.485,3.274,3.619,8.135,4.727,12.05a140.036,140.036,0,0,1,2.925,14.166c1.745,10.038,2.726,20.257,3.879,30.377,1.422,12.485,2.538,25.013,3.478,37.551q-.573,1.421-1.148,2.839c-.57-8.491-1.45-16.99-2.014-25.389-.485-7.223-1.119-14.42-2.241-21.572-1.009-6.429-1.668-13.1-3.871-19.251-.036-.1-.206.024-.184.107,1.707,6.454,1.8,13.3,2.318,19.931.572,7.372.732,14.743,1.012,22.129.256,6.732.382,13.609.739,20.47-.015-.147-.031-.294-.045-.441-.886-9.085-1.461-18.159-2.7-27.212C54.3,64.873,51.64,46.892,44.144,31.67c-.1-.213-.426.073-.355.258,6.411,16.6,7.139,35.412,8.874,52.95.711,7.192,1.167,14.416,1.633,21.631-.4-3.646-.825-7.289-1.3-10.925C51.8,86.546,49.963,77.565,48,68.667c-1.767-8.019-3.2-16.466-6.525-24.025-.083-.189-.367.063-.311.225,2.745,7.9,3.523,16.526,4.709,24.763.466,3.238.864,6.479,1.226,9.724-1.039-5.329-2.126-10.645-3.051-15.958A390.941,390.941,0,0,0,33.215,15.871c-.032-.1-.2.026-.184.108,2.143,13.379,4.076,26.791,6.142,40.182q-1.6-5.525-3.374-11c-.066-.371-.125-.744-.2-1.114-.639-3.38-.993-7.592-2.686-10.617-.04-.07-.151.032-.138.09a29.441,29.441,0,0,1,.53,4.339q-1.734-4.868-3.664-9.658c-.11-.272-.52.089-.444.322,1.623,4.962,3.006,9.944,4.213,14.946,0,.981,0,1.951.018,2.889.038,1.84.094,3.679.15,5.519-1.215-4.7-2.547-9.368-4.067-13.975-3-9.1-6.415-19.241-11.614-27.336-.08-.125-.272.046-.222.161,2.075,4.765,3.036,9.927,4.4,14.925.042.154.083.308.125.461.9,4.422,1.649,8.856,2.284,13.3a81.425,81.425,0,0,0-6.34-10.06c-.069-.093-.231.04-.177.129a90.745,90.745,0,0,1,7.254,15.445C26.7,56.9,27.507,68.962,28.479,81.109c.527,6.6,1.014,13.229,1.292,19.863q-.519-4.734-1.146-9.451c-.13-1.32-.254-2.64-.4-3.959-2.2-19.729-5.746-39.878-13.577-58.226-.081-.189-.395.008-.34.178a150.325,150.325,0,0,1,5.45,23.73c-1.375-3.8-2.859-7.577-4.418-11.323C13.086,36.51,10.889,31.126,8.2,25.912,5.574,20.829,1.944,15.377.5,9.821c-.069-.261-.522-.016-.495.2.612,4.9,2.893,9.844,4.521,14.487,1.96,5.6,3.86,11.17,5.422,16.9C13.093,52.935,16.9,64.163,19.043,75.951Zm219.9-53.069q-.541,1.22-1.083,2.439A8.007,8.007,0,0,1,238.939,22.882ZM174.194,61.028c-.1-2.1-.158-4.231-.244-6.359.738,5.9,1.354,11.811,2.025,17.694q1.239,10.87,2.19,21.775c-.7-1.15-1.633-1.553-2.868-.22a8.7,8.7,0,0,0-1.642,2.667c.113-4.645.217-9.277.412-13.87C174.373,75.484,174.53,68.259,174.194,61.028ZM150.078,30.151c2.189,13.956,2.864,27.9,3.118,41.992-.333-3.849-.683-7.7-1.078-11.542-.781-7.608-1.695-15.221-2.991-22.766Q149.575,33.992,150.078,30.151Zm-3.291,34.563c0-.031,0-.062.006-.093.385,4.607.69,9.192,1,13.7q.388,5.672.847,11.337c-.308-2.124-.626-4.247-.969-6.368q-.622-3.855-1.376-7.676C146.438,71.982,146.592,68.348,146.787,64.714ZM142.67,25.555c.044-.151.1-.3.143-.446.326,2.225.637,4.453.914,6.688q.234,1.887.462,3.774-1.16-3.331-2.552-6.566C141.988,27.858,142.335,26.708,142.67,25.555ZM138.2,40.409c.886-3.184,1.873-6.337,2.849-9.494.883,2.867,1.624,5.785,2.27,8.732-1.107,3.691-2.224,7.376-3.311,11.066q-.412-1.39-.843-2.773c.518-3.093.986-6.191,1.262-9.311.029-.322-.386-.126-.428.086-.457,2.268-1.017,4.517-1.628,6.756-.166-.5-.327-1.009-.5-1.511-.116-.337-.231-.688-.346-1.041C137.747,42.083,137.969,41.245,138.2,40.409Zm-.441,15.8.255,1.439q-.48,1.731-.942,3.466l-.018-.054C137.258,59.441,137.5,57.825,137.761,56.211Zm-1.484-8.419q.266,1.541.541,3.079-.753,2.517-1.508,5.034c-.182-.522-.363-1.044-.547-1.565Q135.479,51.06,136.277,47.792ZM132.544,65.54c.026.114.053.228.08.342q-.332,1.426-.643,2.858Q132.254,67.138,132.544,65.54Zm-4.231-17.027c.138.511.278,1.021.413,1.532-.671,2-1.322,4-1.926,6.019Q127.565,52.29,128.313,48.513Zm-2.01-7.139c.1.327.2.653.29.981-.1.264-.211.526-.311.792-.169.445-.327.894-.492,1.341C125.954,43.447,126.129,42.41,126.3,41.374ZM113.349,76.259c-1.2,6.07-2.271,12.162-3.164,18.278a1.971,1.971,0,0,0-.9.057c.513-5.573,1.074-11.142,1.777-16.695,1.088-8.583,2.415-17.057,4.329-25.489q1.1,2.4,2.2,4.8Q115.238,66.68,113.349,76.259Zm6.464-27.511c-.76-1.311-1.521-2.621-2.3-3.921l-.195-.325q.486-1.875,1.007-3.741,1.14,2.757,2.165,5.554C120.257,47.124,120.036,47.936,119.813,48.748Zm2.392-19.96c.668,1.863,1.316,3.729,1.931,5.6q-1.542,4.69-2.924,9.434c-.782-1.587-1.583-3.165-2.421-4.721.308-1.062.62-2.123.951-3.181.722-2.312,1.567-4.571,2.375-6.852C122.149,28.981,122.175,28.882,122.205,28.788ZM119.667,22.1q.983,2.447,1.895,4.908c-.663,1.638-1.215,3.345-1.9,4.747-.8,1.636-1.511,3.31-2.178,5.006q-.7-1.239-1.422-2.46C117.213,30.226,118.446,26.173,119.667,22.1Zm-3.832,13.022q.635,1.351,1.236,2.715-.739,1.948-1.406,3.925c-.369-.614-.745-1.224-1.117-1.835C114.955,38.316,115.39,36.716,115.835,35.118Zm-2.9,11.857c.2.459.408.919.614,1.377q-1.065,3.45-2.05,6.918c.226-1.408.446-2.815.679-4.223C112.4,49.681,112.66,48.325,112.934,46.975Zm-9.318-18.991c.219.4.438.8.646,1.2q.819,1.559,1.625,3.117c-.177.6-.359,1.192-.533,1.79-1.893,6.533-3.52,13.182-4.932,19.859C101.311,45.286,102.373,36.649,103.616,27.984Zm2.105,31.362Q107.308,48.9,109,38.471q1.323,2.7,2.562,5.453c-.615,1.956-1.209,3.92-1.76,5.9a284.535,284.535,0,0,0-6.379,30.1c-1.4,8.53-2.307,17.178-3.029,25.8-.131-.623-.279-1.239-.462-1.846C102.145,89.086,103.479,74.1,105.721,59.346ZM82.672,112.435c-.06,0-.12,0-.178-.008-.009-1.073-.032-2.144-.037-3.217Q82.549,110.822,82.672,112.435Z" fill="#398430"/><path d="M207.718,134.254h3.2c-.3-13.187-.408-26.391-.1-39.574.195-8.231.243-16.528.922-24.737a112.869,112.869,0,0,1,1.328-11.616c.609-3.232,1.17-7.228,2.933-10.043.056-.089-.095-.237-.167-.151-1.974,2.347-2.932,5.618-3.751,8.529a94.69,94.69,0,0,0-2.228,10.163c-.766,4.638-1.232,9.391-1.565,14.148-.848-10.862-2.053-21.679-3.576-32.373-.017-.118-.281-.232-.276-.064.487,14.78.5,29.558,1.183,44.334Q206.582,113.567,207.718,134.254Z" fill="#73b634"/><path d="M158.662,64.242c.816,1.778,1.66,3.536,2.408,5.344,1.6,3.861,2.985,7.778,4.305,11.743A209.57,209.57,0,0,1,171.1,102.75c1.749,7.973,3.136,16.019,4.571,24.053.443,2.478.846,4.965,1.257,7.451h6.4c-.311-2.089-.651-4.161-.994-6.2-1.365-8.111-2.885-16.262-4.94-24.23a230.17,230.17,0,0,0-7.317-23.769c-2.836-7.517-6.318-14.674-9.773-21.918-.076-.16-.374-.177-.285.045,3.043,7.6,6.167,15.077,8.233,23.026.29,1.116.569,2.234.852,3.351q-1.26-3.3-2.62-6.569a89,89,0,0,0-5.661-11.773c-1.333-2.214-2.32-5.5-4.405-7.109-.066-.051-.124.012-.066.072C157.634,60.481,157.924,62.634,158.662,64.242Z" fill="#73b634"/><path d="M168.355,64.777q2.907,11.311,5.7,22.648c3.809,15.526,6.366,31.5,10.949,46.828h11.368c.13-2.784.119-5.578.026-8.371q.357,4.188.657,8.371h2.34q-.073-1.687-.208-3.374.2,1.688.416,3.374h5.909a266.857,266.857,0,0,0-1.221-41.138c-.76-7.77-1.8-15.508-3.3-23.171-.777-3.966-1.564-7.937-2.412-11.888-.763-3.558-1.944-7-2.523-10.6-.022-.135-.329-.264-.316-.073.242,3.553,1.155,6.995,1.524,10.53q.657,6.27,1.046,12.566c.447,7.3.7,14.619,1.118,21.926-1-6.979-2.372-13.881-4.013-20.743-1.889-7.9-4.408-15.672-6.152-23.591-.04-.179-.384-.293-.351-.039.988,7.809,2.773,15.537,3.886,23.34q1.692,11.864,2.976,23.794c.823,7.661,1.424,15.341,2.12,23.009-.571-5.19-1.2-10.375-2.068-15.521a339.575,339.575,0,0,0-8.857-40.2c-.068-.228-.55-.382-.469-.051,1.8,7.323,3.333,14.735,4.649,22.2q-1.789-7.531-4.114-14.928c-2.2-7.041-5.426-13.825-7.215-20.976-.029-.117-.252-.2-.234-.026.8,7.359,3.081,14.624,4.562,21.874.254,1.248.5,2.5.75,3.749a124.443,124.443,0,0,0-8.023-18.716c-.112-.21-.518-.248-.392.062,3.647,9.033,5.986,18.675,7.9,28.341Q180.965,73.41,176.709,63.1c-.081-.2-.532-.3-.448.007,2.425,8.675,4.585,17.491,6.483,26.337-2.881-10.657-6.449-21.065-10.064-31.553-.03-.087-.217-.122-.187,0,2.031,8.269,3.828,16.512,5.439,24.8-1.62-5.274-3.412-10.509-5.41-15.63-1.531-3.927-3.162-7.8-5-11.592-.9-1.86-1.78-3.728-2.5-5.669-.507-1.379-1.537-3.291-1.635-4.754-.008-.111-.228-.245-.24-.083-.2,2.658,1.305,5.756,2.043,8.269C166.324,57.07,167.36,60.906,168.355,64.777Z" fill="#73b634"/><path d="M212.14,134.254H229.9c.147-1.742.3-3.478.485-5.2.924-8.463,1.822-16.932,2.57-25.413,1.376-15.594,2.666-32.325,9.577-46.622.038-.075-.1-.17-.151-.091a69.519,69.519,0,0,0-5.835,12.221c.145-1.014.287-2.028.433-3.043.573-3.974,1.268-7.921,1.969-11.874.731-4.123,1.132-8.348,2.456-12.334.032-.1-.134-.221-.189-.114-3.6,6.894-5.611,15.305-7.369,22.85a233.272,233.272,0,0,0-4.1,24.618c-.38,3.1-.725,6.2-1.055,9.311.527-13.959,1.559-27.72,4.731-41.5.045-.193-.312-.455-.381-.227a230.649,230.649,0,0,0-5.643,23.2c.693-10.931,1.277-21.868,2.033-32.794,0-.067-.138-.16-.156-.073A315.9,315.9,0,0,0,224,86.215c-.359,4.345-.849,8.7-1.3,13.069.056-2.638.141-5.277.282-7.918.357-6.717.359-13.718,2-20.277.034-.135-.212-.317-.267-.159-2.127,6.326-2.67,13.23-3.511,19.815-.934,7.306-1.759,14.669-2.064,22.031-.123,2.962-.2,5.926-.259,8.89-.148-5.843-.3-11.691-.253-17.534.126-14.244-.653-29.447,3.306-43.271.045-.154-.236-.361-.3-.182-4.931,12.8-5.768,27.467-6.389,41.038-.338,7.378-.144,14.725-.2,22.1,0,.12,0,.239,0,.359-.21-5.55-.606-11.095-.888-16.534-.31-5.966-.716-11.913-.79-17.889-.065-5.376-.485-10.895.421-16.214.013-.068-.133-.157-.156-.073C212.29,78.58,212.244,84,211.9,89.248c-.386,5.839-.374,11.68-.241,17.53C211.863,115.859,211.634,125.122,212.14,134.254Z" fill="#73b634"/><path d="M92.967,134.254h3.2c-.3-13.187-.409-26.391-.1-39.574.2-8.231.244-16.528.922-24.737a113.149,113.149,0,0,1,1.329-11.616c.608-3.232,1.169-7.228,2.932-10.043.056-.089-.095-.237-.167-.151-1.974,2.347-2.932,5.618-3.75,8.529a94.69,94.69,0,0,0-2.228,10.163c-.766,4.638-1.232,9.391-1.564,14.148C92.7,70.111,91.491,59.294,89.968,48.6c-.017-.118-.282-.232-.276-.064.487,14.78.5,29.558,1.182,44.334Q91.831,113.567,92.967,134.254Z" fill="#73b634"/><path d="M43.911,64.242c.816,1.778,1.66,3.536,2.408,5.344,1.6,3.861,2.985,7.778,4.305,11.743a209.57,209.57,0,0,1,5.725,21.421c1.749,7.973,3.136,16.019,4.571,24.053.443,2.478.845,4.965,1.257,7.451h6.4c-.311-2.089-.651-4.161-.994-6.2-1.365-8.111-2.885-16.262-4.94-24.23a230.17,230.17,0,0,0-7.317-23.769c-2.836-7.517-6.318-14.674-9.773-21.918-.076-.16-.374-.177-.285.045,3.043,7.6,6.167,15.077,8.233,23.026.29,1.116.569,2.234.853,3.351q-1.26-3.3-2.62-6.569a89,89,0,0,0-5.661-11.773c-1.333-2.214-2.32-5.5-4.405-7.109-.066-.051-.125.012-.065.072C42.883,60.481,43.173,62.634,43.911,64.242Z" fill="#73b634"/><path d="M53.6,64.777q2.907,11.311,5.7,22.648c3.809,15.526,6.366,31.5,10.949,46.828H81.623c.13-2.784.119-5.578.026-8.371q.357,4.188.657,8.371h2.34q-.074-1.687-.209-3.374.2,1.688.416,3.374h5.909a266.731,266.731,0,0,0-1.221-41.138c-.76-7.77-1.8-15.508-3.3-23.171-.777-3.966-1.564-7.937-2.412-11.888-.763-3.558-1.944-7-2.523-10.6-.022-.135-.329-.264-.316-.073.242,3.553,1.155,6.995,1.524,10.53q.656,6.27,1.046,12.566c.447,7.3.7,14.619,1.119,21.926-1-6.979-2.372-13.881-4.013-20.743-1.889-7.9-4.408-15.672-6.152-23.591-.04-.179-.384-.293-.351-.039.988,7.809,2.773,15.537,3.886,23.34q1.692,11.864,2.976,23.794c.823,7.661,1.424,15.341,2.119,23.009-.57-5.19-1.2-10.375-2.068-15.521a339.575,339.575,0,0,0-8.857-40.2c-.068-.228-.55-.382-.469-.051,1.8,7.323,3.332,14.735,4.649,22.2q-1.789-7.531-4.114-14.928c-2.2-7.041-5.426-13.825-7.215-20.976-.029-.117-.253-.2-.234-.026.8,7.359,3.081,14.624,4.562,21.874.254,1.248.5,2.5.75,3.749a124.443,124.443,0,0,0-8.023-18.716c-.112-.21-.518-.248-.392.062,3.647,9.033,5.986,18.675,7.9,28.341Q66.213,73.41,61.957,63.1c-.081-.2-.532-.3-.448.007,2.425,8.675,4.585,17.491,6.483,26.337C65.109,78.785,61.541,68.377,57.926,57.89c-.03-.087-.217-.122-.187,0,2.031,8.269,3.828,16.512,5.44,24.8-1.62-5.274-3.412-10.509-5.41-15.63-1.531-3.927-3.162-7.8-5-11.592-.9-1.86-1.78-3.728-2.495-5.669-.507-1.379-1.537-3.291-1.635-4.754-.008-.111-.228-.245-.24-.083-.2,2.658,1.3,5.756,2.043,8.269C51.573,57.07,52.609,60.906,53.6,64.777Z" fill="#73b634"/><path d="M97.389,134.254h17.763c.147-1.742.3-3.478.486-5.2.923-8.463,1.822-16.932,2.57-25.413,1.375-15.594,2.666-32.325,9.577-46.622.037-.075-.1-.17-.152-.091A69.59,69.59,0,0,0,121.8,69.153c.145-1.014.287-2.028.434-3.043.573-3.974,1.266-7.921,1.968-11.874.732-4.123,1.131-8.348,2.456-12.334.033-.1-.134-.221-.19-.114-3.6,6.894-5.611,15.305-7.369,22.85a233.272,233.272,0,0,0-4.1,24.618c-.38,3.1-.725,6.2-1.055,9.311.527-13.959,1.558-27.72,4.731-41.5.044-.193-.312-.455-.381-.227a230.378,230.378,0,0,0-5.643,23.2c.692-10.931,1.277-21.868,2.033-32.794,0-.067-.138-.16-.156-.073a315.9,315.9,0,0,0-5.278,39.046c-.36,4.345-.85,8.7-1.3,13.069.056-2.638.141-5.277.281-7.918.358-6.717.36-13.718,2-20.277.034-.135-.213-.317-.267-.159-2.127,6.326-2.67,13.23-3.512,19.815-.933,7.306-1.759,14.669-2.065,22.031-.123,2.962-.2,5.926-.259,8.89-.148-5.843-.3-11.691-.253-17.534.125-14.244-.653-29.447,3.306-43.271.045-.154-.235-.361-.3-.182-4.932,12.8-5.768,27.467-6.39,41.038-.338,7.378-.144,14.725-.2,22.1,0,.12,0,.239,0,.359-.21-5.55-.606-11.095-.888-16.534-.31-5.966-.716-11.913-.79-17.889-.065-5.376-.484-10.895.422-16.214.012-.068-.134-.157-.156-.073C97.537,78.58,97.49,84,97.144,89.248c-.386,5.839-.374,11.68-.241,17.53C97.112,115.859,96.882,125.122,97.389,134.254Z" fill="#73b634"/><path d="M130.436,134.254c.024-.689.04-1.377.07-2.066.312-2.588.606-5.149.973-7.614,1.439-9.7,2.8-19.47,5.108-29.008,2.274-9.414,5.863-18.3,8.934-27.462,1.525-4.549,3.315-8.959,5.155-13.385,1.527-3.672,3.6-7.555,4.316-11.483.032-.171-.322-.391-.389-.183-1.425,4.417-4.606,8.65-6.957,12.631-2.413,4.084-4.434,8.327-6.5,12.59-1.432,2.952-2.8,5.926-4.088,8.934a121.6,121.6,0,0,1,5.492-18.9c.052-.134-.192-.308-.267-.159-7.165,14.446-10.957,30.544-13.64,46.364-.179,1.058-.34,2.117-.506,3.176q-.726,3.779-1.361,7.574c.53-5.34,1.229-10.671,1.958-15.969,2.415-17.535,4.382-34.864,9.839-51.786.044-.134-.2-.312-.267-.159-6.562,14.292-10.611,29.112-13.651,44.418q.345-4.791.731-9.578c.3-3.725.662-7.444.95-11.17.258-3.324.248-7.107,1.12-10.331.013-.047-.072-.134-.107-.079-1.506,2.363-1.987,5.746-2.658,8.444-.791,3.181-1.4,6.405-2.025,9.622a186.5,186.5,0,0,0-3.014,22.75c-.523,7.434-.737,14.865-1.08,22.3-.155,3.368-.479,6.947-.563,10.523Z" fill="#73b634"/><path d="M29.425,134.254h4.962a363.262,363.262,0,0,0-5.405-38.631c-3.2-15.83-9.534-31.276-14.989-46.437-.024-.069-.175-.1-.149,0a417.783,417.783,0,0,1,9.6,45.823C25.337,108.134,26.558,121.328,29.425,134.254Z" fill="#73b634"/><path d="M27.109,62.9c1.522,3.892,3.2,7.724,4.674,11.634a228.733,228.733,0,0,1,7.061,22.358c-.407-1.3-.825-2.594-1.268-3.88C35.3,86.4,32.2,80,30.213,73.3c-.049-.168-.4-.3-.352-.039,1.093,6.074,3.086,11.961,4.385,18.008-3.05-8.4-6.6-16.614-9.792-25.009-.07-.186-.482-.27-.411.007,3.5,13.586,6.221,27.311,9.041,41.063,1.813,8.839,2.836,17.948,4.359,26.923H54.136q-.134-1.27-.3-2.536c.029.016.057.034.086.049.123.826.24,1.656.359,2.487H61.9c-.2-1.222-.413-2.436-.622-3.64A262.872,262.872,0,0,0,54.389,101.6C49.061,83.453,42.342,65.7,33.074,49.171c-.158-.282-.734-.324-.536.083,4.282,8.786,7.142,18.152,9.533,27.663-.165-.348-.325-.7-.493-1.044C38.965,70.5,35.8,65.446,33.128,60.115c-.108-.216-.516-.246-.392.061,2.286,5.655,4.9,10.948,6.613,16.843Q40.7,81.671,42.1,86.31a142.429,142.429,0,0,0-6.245-13.562A74.674,74.674,0,0,0,29.44,62.159c-2.312-3.033-4.911-5.942-7.1-9.05-.091-.13-.359-.11-.262.083C23.736,56.483,25.753,59.434,27.109,62.9Z" fill="#73b634"/><path d="M10.028,56.132c.99,4.3,1.537,8.718,2.211,13.078,1.419,9.17,2.819,18.352,4.363,27.5,1.753,10.393,3.574,20.768,5.2,31.174q.267,3.189.594,6.367h4.163A290.656,290.656,0,0,0,22.636,98.6c-1.513-9.3-3.289-18.511-5.525-27.666-1.11-4.546-2.6-9.007-4.084-13.443a61.688,61.688,0,0,0-2.586-5.683c-.558-1.234-2.22-3.986-2.185-5.252,0-.159-.28-.319-.318-.112a5.055,5.055,0,0,0,.5,2.769A58.211,58.211,0,0,1,10.028,56.132Z" fill="#73b634"/><path d="M142.8,134.254c-.036-.645-.071-1.288-.1-1.926-.24-5.176-.046-10.381.161-15.572a171.359,171.359,0,0,0,.637,17.5h14.615q.115-3.076.152-6.16.408,3.093,1.021,6.16h7.547c-.939-7.544-2.357-15.043-3.282-22.606-1.487-12.175-2.787-24.322-3.759-36.549-.015-.181-.276-.029-.286.094-.57,7.383-1.284,14.832-1.752,22.279-.167-6.128-.38-12.264-.773-18.374-.508-7.889-2.118-15.6-2.892-23.454-.024-.241-.371-.04-.381.125-.482,7.638-.064,15.293-.177,22.937-.123,8.307-.576,16.6-.616,24.91-.042,8.713-.39,17.5-.473,26.283-.2-5.313-.407-10.626-.376-15.937.067-11.481.4-23.019-.453-34.479-.009-.121-.184-.02-.191.063-.8,9.843-2.033,19.633-2.639,29.487.025-1.212.048-2.425.08-3.638.183-7.02.624-14.031.954-21.044.316-6.731-.076-13.669,1.074-20.325.04-.227-.273-.118-.323.023-4.631,13.406-6.319,28.4-7.286,42.476-.051.739-.093,1.478-.136,2.217.4-12.831.977-25.95,3.208-38.574.045-.256-.315-.139-.369.027a209.284,209.284,0,0,0-8.229,38.623c0-5.861.208-11.708.372-17.611,0-.128-.158-.074-.184.014-2.972,9.912-5.164,19.543-5.265,29.956-.042,4.3,0,8.7.286,13.078H142.8Z" fill="#73b634"/><path d="M169.542,134.254h4.938c-1.167-5.646-2.611-11.263-3.549-16.881-.872-5.223-1.77-10.441-2.643-15.664-.8-4.766-1.8-9.709-1.884-14.546,0-.269-.411-.044-.428.14a77.58,77.58,0,0,0-.235,9.974q-.339-1.82-.652-3.645c-.855-5.026-2.2-10.1-2.746-15.152-.016-.149-.234-.027-.238.078-.367,10.233,1.034,20.809,2.476,30.921C165.725,117.5,166.886,126.269,169.542,134.254Z" fill="#73b634"/><path d="M253.439,134.254c.806-16.636.117-33.29.088-49.934-.015-8.043-.174-16.086-.246-24.128-.067-7.483.368-15.043.107-22.507-.006-.179-.275-.03-.285.094-.573,7.283-1.915,14.528-2.47,21.835-.645,8.483-.875,16.984-.982,25.491q-.072,5.6-.021,11.2c-.569-15.383-.326-30.762-.778-46.138-.006-.2-.326-.04-.333.109-.7,15.391-2.137,30.67-2.059,46.105.044,8.635.31,17.308.854,25.96-.537-5.493-1.25-10.982-1.7-16.475-.574-6.978-1.351-13.942-1.832-20.928-.435-6.289-.015-13.094-1.124-19.283-.03-.165-.24-.006-.239.108.046,3.218-.706,6.584-.975,9.8-.288,3.456-.506,6.921-.723,10.382a169.6,169.6,0,0,0-.016,20.553c.225,3.8.433,7.637.69,11.481-.854-7-1.552-13.991-1.943-21.063-.021-.36-.553-.061-.571.187-.028.379-.063.757-.093,1.136q.162-14.713,1.513-29.381c.02-.213-.258-.085-.285.058q-3.45,18.226-5.174,36.705c-.016-7.562.294-15.09.525-22.688.008-.246-.314-.109-.333.067-1.193,10.758-2.8,21.313-2.714,32.185.048,6.349.259,12.737.893,19.073Z" fill="#73b634"/><path d="M6.251,94.251c1.008,13.334,1.545,26.71,3.015,40H27.617c.011-4.745-.21-9.494-.539-14.211-.668-9.6-2.8-18.809-4.593-28.224-.029-.155-.322-.252-.3-.036.723,6.691,1.51,13.314,2.014,19.991Q21.4,95.6,17.126,79.728c-.034-.125-.288-.219-.255-.032q2.175,12.838,3.342,25.831c-.053-.332-.109-.664-.16-1-.034-.217-.524-.445-.518-.126.138,6.269,0,12.486-.277,18.724-.035-3.411-.113-6.812-.174-10.182a150.021,150.021,0,0,0-1.418-18.14c-.428-3.04-.856-6.084-1.347-9.115-.456-2.816-1.35-5.736-1.529-8.58-.006-.1-.2-.227-.218-.079-.557,5.538.278,11.517.325,17.1.052,6.2-.157,12.4-.188,18.6-.023,4.878-.277,9.773-.376,14.659-.11-7.675-.469-15.349-1.02-22.973-.985-13.63-3.295-27.019-4.966-40.557-.016-.13-.31-.255-.3-.073.651,13.6,1.916,27.161,2.464,40.779q-.343-4.944-.784-9.885c-.676-7.5-1.459-14.99-2.608-22.434-.989-6.412-2.668-12.715-3.671-19.1-.017-.109-.265-.222-.258-.064.279,6.606,1.18,13.25,1.632,19.859C5.306,80.04,5.715,87.15,6.251,94.251Z" fill="#73b634"/><path d="M128.385,116.254c-.034,0-.067,0-.1,0,0-.461-.018-.92-.021-1.379Q128.315,115.564,128.385,116.254Z" fill="#b4cc04"/><path d="M255.865,103.824a45.405,45.405,0,0,0-3.693,6.325c.107-5.958.356-11.913.882-17.844.022-.245-.274-.087-.31.064-1.124,4.769-2.608,9.275-3.867,13.854a44.188,44.188,0,0,0-4.412-17.643c-.069-.136-.278.033-.25.151.96,4.008-.132,8.83-.512,12.929-.014.149-.022.3-.035.447a61,61,0,0,0-3.2-9.72c-.079-.183-.359.045-.324.2,1.045,4.542,1.008,9.6.77,14.461a36.946,36.946,0,0,0-3.784-10.92c-1.141-2.061-3.612-5.545-5.8-6.39-.09-.035-.227.118-.145.2,2.407,2.28,2.5,8.852,2.971,11.98.3,2,.539,4.018.755,6.036-.053.129-.1.256-.156.385-.8-1.747-1.756-3.4-2.647-5.106.212-2.659.484-5.3.85-7.916.027-.2-.238-.11-.275.021-.553,1.915-1.124,3.81-1.693,5.7a.216.216,0,0,0-.166.234c.016.056.029.112.045.167-1.36,4.514-2.7,8.992-3.736,13.587q.007-8.121-.038-16.221c0-.12-.169-.013-.181.062-.611,3.972-2.521,7.563-3.3,11.513-.2,1.007-.368,2.021-.534,3.034a237.493,237.493,0,0,1,.837-26.43c.019-.2-.242-.115-.275.021a202.454,202.454,0,0,0-4.574,23.938c-.957-6.258-2.513-12.391-4.029-18.663-.047-.2-.3-.016-.284.133a154.728,154.728,0,0,1,.185,23.3c-.22.024-.454.055-.679.082-.248-2.459-.459-4.921-.571-7.392-.014-.317-.477-.055-.491.166a65.019,65.019,0,0,1-1.063,7.511c-.4.06-.8.119-1.211.186-.073-10.294-1.182-21.073.455-31.122.043-.268-.324-.15-.376.028A150.962,150.962,0,0,0,206.17,109.7a145.694,145.694,0,0,1-1.716-14.626c-.014-.265-.406-.05-.413.14-.093,2.357-.23,4.7-.379,7.041a58.459,58.459,0,0,0-4.3-17.841c-.064-.144-.267.038-.25.151.612,3.952.171,8.439-.143,12.679-1.258,1.422-2.447,2.843-3.548,4.287a73.937,73.937,0,0,0-6.551-16.783c-.079-.146-.293.052-.241.181a84.458,84.458,0,0,1,4.934,19.2c-.459.678-.9,1.363-1.325,2.06a26.5,26.5,0,0,0-1.974-2.144c.145-3.918.363-7.831.709-11.734.021-.245-.274-.087-.311.064-.785,3.332-1.745,6.534-2.683,9.723a12.651,12.651,0,0,0-1.736-1.089,40.922,40.922,0,0,0-3.86-12.423c-.069-.136-.278.033-.249.151.96,4.008-.132,8.83-.512,12.929-.014.149-.022.3-.035.447a60.9,60.9,0,0,0-3.2-9.72c-.079-.183-.359.045-.325.2,1.046,4.542,1.008,9.6.771,14.461a36.975,36.975,0,0,0-3.784-10.92c-1.128-2.037-3.556-5.462-5.721-6.356.165-1.663.355-3.317.585-4.959.028-.2-.238-.11-.275.021-1.912,6.627-4.053,13.033-5.55,19.688q.008-8.121-.038-16.221c0-.12-.169-.013-.181.062-.611,3.972-2.521,7.563-3.3,11.513-.2,1.007-.368,2.021-.533,3.034a237.252,237.252,0,0,1,.837-26.43c.02-.2-.242-.115-.275.021a202.454,202.454,0,0,0-4.574,23.938c-.958-6.258-2.512-12.391-4.029-18.663-.047-.2-.3-.016-.284.133.9,9.069.5,18.359-.053,27.518-.43-3.836-.838-7.673-1.012-11.533-.015-.317-.477-.055-.491.166-.265,4.048-1.222,7.94-1.84,11.936-.2,1.322-.359,2.656-.484,4q0-2.655.043-5.315c.174-11.158-1.329-23.038.462-34.04.044-.268-.324-.15-.375.028A150.856,150.856,0,0,0,143.124,99.2a145.694,145.694,0,0,1-1.716-14.626c-.014-.265-.406-.05-.413.14-.093,2.357-.23,4.7-.379,7.041a58.487,58.487,0,0,0-4.3-17.841c-.064-.144-.268.038-.25.151.805,5.194-.212,11.317-.366,16.581-.141,4.828-.337,9.66-.651,14.48-1.483-11.066-3.872-21-9.225-30.878-.079-.146-.293.052-.241.181a91.669,91.669,0,0,1,5.584,24.192c-.216-.388-.433-.776-.668-1.153-1.635-2.62-6.054-7.2-9.168-7.588.034,0,.071-.047.045-.076-.077-.089-.154-.179-.232-.268-.115-.132-.35.133-.242.271a30.033,30.033,0,0,1,3.351,5.425c.677,3.852-.286,8.33-.643,12.18-.014.149-.022.3-.035.447a61,61,0,0,0-3.2-9.72c-.079-.183-.359.045-.324.2,1.045,4.542,1.008,9.6.771,14.461a36.973,36.973,0,0,0-3.783-10.92c-1.141-2.061-3.613-5.545-5.8-6.39-.09-.035-.227.118-.145.2,2.407,2.28,2.5,8.852,2.971,11.98.3,2,.539,4.018.755,6.036-.053.129-.1.256-.156.385-.8-1.747-1.756-3.4-2.647-5.106.212-2.659.484-5.3.85-7.916.028-.2-.238-.11-.275.021-.552,1.915-1.123,3.81-1.692,5.7a.217.217,0,0,0-.167.234c.016.056.029.112.045.167-1.361,4.514-2.7,8.992-3.736,13.587q.007-8.121-.038-16.221c0-.12-.169-.013-.181.062-.611,3.972-2.521,7.563-3.3,11.513-.2,1.007-.368,2.021-.533,3.034a237.252,237.252,0,0,1,.837-26.43c.02-.2-.242-.115-.275.021a202.657,202.657,0,0,0-4.574,23.938c-.958-6.258-2.512-12.391-4.029-18.663-.047-.2-.3-.016-.284.133.9,9.069.5,18.359-.053,27.518-.43-3.836-.838-7.673-1.012-11.533-.014-.317-.477-.055-.491.166-.265,4.048-1.222,7.94-1.84,11.936-.2,1.322-.359,2.656-.484,3.995q0-2.655.042-5.315c.174-11.158-1.329-23.038.462-34.04.043-.268-.324-.15-.375.028a150.856,150.856,0,0,0-4.837,24.542,145.694,145.694,0,0,1-1.716-14.626c-.014-.265-.406-.05-.413.14-.093,2.357-.23,4.7-.379,7.041a58.458,58.458,0,0,0-4.3-17.841c-.064-.144-.268.038-.25.151.612,3.952.171,8.439-.143,12.679-1.257,1.422-2.447,2.843-3.548,4.287a73.937,73.937,0,0,0-6.551-16.783c-.079-.146-.293.052-.241.181a84.458,84.458,0,0,1,4.934,19.2c-.459.678-.9,1.363-1.325,2.06a26.5,26.5,0,0,0-1.974-2.144c.145-3.918.363-7.831.709-11.734.021-.245-.274-.087-.311.064-.785,3.332-1.745,6.534-2.683,9.723a12.651,12.651,0,0,0-1.736-1.089A40.922,40.922,0,0,0,62.3,94.339c-.069-.136-.278.033-.249.151.96,4.008-.132,8.83-.512,12.929-.014.149-.022.3-.035.447a60.9,60.9,0,0,0-3.2-9.72c-.079-.183-.359.045-.325.2,1.046,4.542,1.008,9.6.771,14.461a36.946,36.946,0,0,0-3.784-10.92c-1.128-2.037-3.556-5.462-5.721-6.356.165-1.663.354-3.317.585-4.959.027-.2-.238-.11-.275.021C47.638,97.216,45.5,103.622,44,110.277q.008-8.121-.038-16.221c0-.12-.169-.013-.181.062-.611,3.972-2.521,7.563-3.3,11.513-.2,1.007-.368,2.021-.533,3.034a237.493,237.493,0,0,1,.837-26.43c.019-.2-.242-.115-.275.021a202.657,202.657,0,0,0-4.574,23.938c-.958-6.258-2.512-12.391-4.029-18.663-.047-.2-.3-.016-.284.133.9,9.069.5,18.359-.053,27.518-.43-3.836-.838-7.673-1.012-11.533-.014-.317-.477-.055-.491.166-.265,4.048-1.222,7.94-1.84,11.936-.2,1.322-.359,2.656-.484,3.995q0-2.655.043-5.315c.173-11.158-1.33-23.038.462-34.04.043-.268-.324-.15-.375.028a150.962,150.962,0,0,0-4.837,24.542,145.111,145.111,0,0,1-1.715-14.626c-.014-.265-.406-.05-.414.14-.093,2.357-.23,4.7-.379,7.041a58.458,58.458,0,0,0-4.3-17.841c-.064-.144-.267.038-.25.151.8,5.194-.212,11.317-.366,16.581-.141,4.828-.337,9.66-.651,14.48-1.483-11.066-3.872-21-9.225-30.878-.079-.146-.292.052-.241.181a91.669,91.669,0,0,1,5.584,24.192c-.216-.388-.433-.776-.668-1.153-1.635-2.62-6.054-7.2-9.168-7.588.033,0,.07-.047.045-.076L1.06,95.3c-.115-.132-.35.133-.242.271,5.639,7.209,7.166,16.48,8.435,25.424.585,4.124.575,8.742.893,13.274H254.9C255.1,126.421,255.336,107.669,255.865,103.824ZM49.677,108.448c-.269-.532-.538-1.065-.78-1.618-.068-.154-.278.053-.241.181.24.817.445,1.637.636,2.458-.35.921-.714,1.844-1.043,2.766.2-5.436.427-10.936.949-16.354,1.477,1.616,2.022,4.924,2.353,7.865C50.9,105.327,50.277,106.9,49.677,108.448Zm1.9,3.586c.094-1.7.168-3.4.315-5.1.031.255.062.5.1.721.35,2.311.617,4.638.859,6.967C52.464,113.738,52.027,112.882,51.577,112.034Zm15.13-.061c-.035-.585-.085-1.167-.136-1.75.142.263.273.531.408.8C66.889,111.338,66.794,111.655,66.707,111.973ZM78.658,106.9c-.141,4.828-.337,9.66-.651,14.48-.483-3.6-1.065-7.087-1.811-10.488.773-2.2,1.639-4.323,2.579-6.342C78.723,105.342,78.679,106.13,78.658,106.9Zm33.617,13.244c-.271-.446-.532-.893-.823-1.337.1-2.385.216-4.775.373-7.16a67.9,67.9,0,0,1,.913,7.271C112.579,119.323,112.43,119.731,112.275,120.139ZM169.769,102.7c-.27-.532-.538-1.065-.78-1.618-.068-.154-.278.053-.241.181.24.817.445,1.637.636,2.458-.35.921-.714,1.844-1.043,2.766.2-5.436.427-10.936.949-16.354,1.477,1.616,2.022,4.924,2.352,7.865C170.994,99.577,170.368,101.148,169.769,102.7Zm1.9,3.586c.094-1.7.169-3.4.316-5.1.031.255.063.5.1.721.35,2.311.617,4.638.859,6.967C172.556,107.988,172.118,107.132,171.668,106.284Zm15.131-.061c-.035-.585-.085-1.167-.136-1.75.142.263.273.531.408.8C186.981,105.588,186.886,105.905,186.8,106.223Zm11.95-5.078c-.141,4.828-.337,9.66-.651,14.48-.483-3.6-1.065-7.087-1.812-10.488.773-2.2,1.638-4.323,2.579-6.342C198.815,99.592,198.771,100.38,198.749,101.145Zm33.618,13.244c-.271-.446-.532-.893-.823-1.337.1-2.385.216-4.775.373-7.16a68.156,68.156,0,0,1,.913,7.271C232.671,113.573,232.522,113.981,232.367,114.389Z" fill="#42942b"/><path d="M128.385,116.088c-.016.056-.033.111-.049.166-.018-.3-.049-.594-.071-.892C128.3,115.6,128.346,115.845,128.385,116.088Z" fill="#42942b"/><path d="M128.3,116.18c.009-.082.017-.163.026-.244.006.106.015.211.021.317C128.333,116.229,128.316,116.205,128.3,116.18Z" fill="#42942b"/></svg>