<svg xmlns="http://www.w3.org/2000/svg" xml:space="preserve" viewBox="0 0 65.861 36.159"><path fill="#E8B2D8" d="M65.469 24.679a5.78 5.78 0 0 1-.85 4.5c-.16.22-.32.43-.49.63l-.27-.2a5.122 5.122 0 0 0 1.23-2.64 6.383 6.383 0 0 0-.11-2.09c-.19-.81-.4-1.62-.61-2.43a1.772 1.772 0 0 0-.15-.31l-.22.24a3.842 3.842 0 0 1-.26.31.3.3 0 0 0-.18.06c-.06.06 0-.12-.05-.18v-.15a11.98 11.98 0 0 0 .08-2.8 10.35 10.35 0 0 0-1.25-3.82 16.623 16.623 0 0 0-1.9-2.67 10.497 10.497 0 0 0-2.36-2.1 2.997 2.997 0 0 0-1.87-.63 1.3 1.3 0 0 1-.29-.06.194.194 0 0 1-.141-.235l.001-.005a.2.2 0 0 1 .08-.12.654.654 0 0 1 .17-.12l.18-.11a.65.65 0 0 0-.22-.11l-2-.28a12.562 12.562 0 0 0-3.57.08c-.72.11-1.43.34-2.14.49a.617.617 0 0 1-.46-.09c-.17-.15 0-.27.12-.38a.285.285 0 0 0 0-.13H47.8c-.647.16-1.285.357-1.91.59-1.41.61-2.81 1.24-4.18 1.93a16.687 16.687 0 0 1-5.5 1.75c-.46 0-.51.12-.63.6a.563.563 0 0 1-.16.41 1.797 1.797 0 0 0-.55.9 11.588 11.588 0 0 1-2 3.11c-.71.81-1.47 1.57-2.23 2.33a2.38 2.38 0 0 0-.65 1c-.079.226-.18.443-.3.65-.09.18-.18.35-.28.52.202.01.404-.01.6-.06l1.2-.14s.11.06.17.09-.06.13-.1.15c-.194.11-.398.201-.61.27A31.319 31.319 0 0 0 26.609 25c-.44.21-.93.33-1.39.51a1.777 1.777 0 0 0-.33.19c.114.063.23.119.35.17.16.06.324.111.49.15 1.27.32 2.49.91 3.68.67 1.204.05 2.411-.051 3.59-.3a7.289 7.289 0 0 0 2.45-1 1.52 1.52 0 0 0 .69-1.78 5.326 5.326 0 0 0-1.88-2.79l-.27-.24v-.13c0-.02.09 0 .14 0 .05.02.1.04.14.06a5.056 5.056 0 0 1 2.55 3.36c.159.65-.08 1.332-.61 1.74a7.45 7.45 0 0 1-.9.66 7.662 7.662 0 0 1-2.46.86c-.57.09-1.15.14-1.72.23-.127.029-.25.07-.37.12.116.062.236.115.36.16 1.76.56 3.52 1.1 5.27 1.67a42.893 42.893 0 0 0 9.82 2.11c1.46.12 2.93.23 4.39.28.855.013 1.71-.023 2.56-.11a20.194 20.194 0 0 0 2.05-.28c1.07-.21 2.13-.48 3.19-.72a8.142 8.142 0 0 0 3.4-1.6 3.951 3.951 0 0 0 1.27-1.94 2.133 2.133 0 0 0-.28-1.67c-.01-.09-.01-.18 0-.27a.418.418 0 0 1 .28.06c.289.194.47.513.49.86.02.376.02.754 0 1.13a1.695 1.695 0 0 1-.24.82 7.984 7.984 0 0 1-1.11 1.35 8.464 8.464 0 0 1-4.3 1.87c-.37.07-.74.11-1.1.21-1.918.5-3.888.769-5.87.8-.4 0-.82-.08-1.23-.08a29.277 29.277 0 0 1-4.08-.21c-1.35-.19-2.71-.37-4.05-.63a57.323 57.323 0 0 1-6.32-1.73c-3.6-1.11-7.21-2.23-10.83-3.29a39.162 39.162 0 0 0-6.15-1.34c-.66-.08-1.32-.13-1.97-.19-.45-.03-.9-.07-1.34-.12a15.675 15.675 0 0 0-4.43.23 27.195 27.195 0 0 0-5.17 1.45 11.958 11.958 0 0 0-3.4 1.9 3.23 3.23 0 0 0-1.21 1.45c-.149.397-.033.845.29 1.12.28.27.56.55.86.81.16.15.334.284.52.4a18.48 18.48 0 0 0 5.78 2.22c1.72.36 3.46.64 5.2.9 1.241.246 2.505.354 3.77.32 1.07-.07 2.14-.17 3.21-.29a25.763 25.763 0 0 0 5-.95 5.594 5.594 0 0 0 1.85-.86.674.674 0 0 0 0-1.13 2.892 2.892 0 0 0-.71-.49l-.44-.2.03-.07a.142.142 0 0 1 .06.02l.08-.2h.03c.492.2.938.5 1.31.88a.823.823 0 0 1 0 1.27 3.589 3.589 0 0 1-.78.56 9.947 9.947 0 0 1-2.75 1 32.823 32.823 0 0 1-5.31.79c-1 .06-2.08.17-3.12.16a27.925 27.925 0 0 1-3.42-.2 36.34 36.34 0 0 1-8.21-2.13 7.993 7.993 0 0 1-3.08-2.15 1.932 1.932 0 0 1 0-2.94 9.772 9.772 0 0 1 2-1.57c.133-.099.256-.21.37-.33-.14-.1-.26-.21-.4-.29a2.6 2.6 0 0 0-.4-.1 1 1 0 0 1-.44-1.8c.26-.271.56-.5.89-.68.71-.34 1.43-.65 2.16-.94.26-.1.34-.23.29-.49a5.233 5.233 0 0 1 .09-2.49c.06-.23-.08-.34-.24-.45a10.338 10.338 0 0 1-2.14-2.24 5.34 5.34 0 0 1-1.08-2.78 2.756 2.756 0 0 1 .8-2.34A12.758 12.758 0 0 1 7.5 8.929a.837.837 0 0 0 .45-.31 11.925 11.925 0 0 1 2.43-2.54 16.939 16.939 0 0 1 7.18-3.57c.78-.19 1.58-.26 2.37-.4.184-.024.363-.078.53-.16a14.36 14.36 0 0 1 5.15-1.59 8.156 8.156 0 0 1 2.7 0c.17.021.337.058.5.11.448.122.83.417 1.06.82a14.935 14.935 0 0 1 1.73 5.64.84.84 0 0 0 .47.7 7.748 7.748 0 0 1 3.22 3.57c.092.222.159.453.2.69 0 .11-.06.31-.13.33-.23.07-.19.19-.13.35.22.69.22.68.93.54a19.278 19.278 0 0 0 3.94-1.12c.84-.37 1.66-.8 2.5-1.17 1.26-.52 2.52-1.09 3.81-1.62a7.028 7.028 0 0 1 2.8-.43.731.731 0 0 1 .36 0c.779.19 1.591.19 2.37 0 1.79-.099 3.581.159 5.27.76.27.1.54.21.57.57 0 .09.15.18.24.24a15.132 15.132 0 0 1 5.46 6.37 7.79 7.79 0 0 1 .73 2.76c.092.761.259 1.512.5 2.24.319.972.572 1.964.759 2.97zm-30.63-10.63a.519.519 0 0 0 .23-.66c-.1-.34-.24-.68-.37-1-.07-.18-.17-.37 0-.52s.13-.45 0-.68A15.22 15.22 0 0 0 32 8.059c-.12-.11-.22-.15-.34 0a.966.966 0 0 1-.25.2 1.176 1.176 0 0 1-.2-.34c-.05-.32-.07-.65-.11-1a16.543 16.543 0 0 0-1.57-5.33 1.6 1.6 0 0 0-1.45-.91 2.805 2.805 0 0 0-.41 0 15.75 15.75 0 0 0-3.28.5c-.71.18-1.4.44-2.1.67a.978.978 0 0 0-.24.15c.1.044.204.077.31.1l.51.06s.09.07.13.11h-.14c-.63.06-1.26.08-1.89.18-.89.15-1.77.34-2.66.53a17.245 17.245 0 0 0-9.16 5.1c-.41.43-.4.47.2.65h.09a.4.4 0 0 1 .1.15s-.06.09-.1.1a5.21 5.21 0 0 0-.55.22 11.859 11.859 0 0 0-4.31 2.17c-.57.49-1.11 1.01-1.63 1.55a1.071 1.071 0 0 0-.22.6 4.397 4.397 0 0 0 .84 3.14 8.865 8.865 0 0 0 2.13 2.19.7.7 0 0 1 .34.87c-.05.149-.08.303-.09.46a6.476 6.476 0 0 0 .11 2.28c0 .12.15.29.22.29.4 0 .5.31.64.58.06.142.13.279.21.41 0 .07.19.16.23.13.34-.2.53.06.77.21a2.107 2.107 0 0 0 1.63.41c.99-.2 1.992-.33 3-.39a23.653 23.653 0 0 1 5.31.23c1.51.26 3 .6 4.52.88.327.081.667.098 1 .05 3.05-.66 5.39-2.18 6.38-5.31.038-.134.088-.265.15-.39.09-.16.22-.14.3 0 .029.081.05.165.06.25.07.26.12.29.32.09.66-.71 1.37-1.39 2-2.15a13.563 13.563 0 0 0 1.84-3.36.653.653 0 0 1 .199-.34zm-27 10.65c.02-.04-.1-.05-.13 0-.5.17-.77-.11-1-.48 0-.08-.08-.16-.12-.23-.23-.43-.75-.39-1.07-.69h-.14c-.812.27-1.588.64-2.31 1.1a4.516 4.516 0 0 0-.55.53.318.318 0 0 0-.051.448l.001.002a.12.12 0 0 0 .05.05 2.97 2.97 0 0 0 1.69.65l.39-.12 2.93-1.06a2.25 2.25 0 0 0 .24-.08s.05-.08.07-.12z"/><path fill="#FFD2F1" d="M64.979 24.879c.151.686.189 1.392.11 2.09a5.122 5.122 0 0 1-1.23 2.64c-.08.11-.18.22-.21.28a8.65 8.65 0 0 1-5.76 2.79c-1.15.16-2.3.26-3.45.36-.333.03-.667.03-1 0h-3.22a43.475 43.475 0 0 1-9.1-.92c-1.48-.35-2.95-.73-4.41-1.17-3.72-1.13-7.43-2.33-11.15-3.45a51.973 51.973 0 0 0-8.44-1.89c-.29-.04-.58-.07-.87-.1l.06-.77c.65.06 1.31.11 1.97.19 2.083.281 4.139.729 6.15 1.34 3.62 1.06 7.23 2.18 10.83 3.29a57.323 57.323 0 0 0 6.32 1.73c1.34.26 2.7.44 4.05.63 1.353.165 2.717.235 4.08.21.41 0 .83.08 1.23.08 1.982-.031 3.952-.3 5.87-.8.36-.1.73-.14 1.1-.21a8.464 8.464 0 0 0 4.3-1.87 7.984 7.984 0 0 0 1.11-1.35c.149-.248.231-.531.24-.82.02-.376.02-.754 0-1.13a1.113 1.113 0 0 0-.49-.86.418.418 0 0 0-.28-.06c-.01.09-.01.18 0 .27.32.494.421 1.099.28 1.67a3.951 3.951 0 0 1-1.27 1.94 8.142 8.142 0 0 1-3.4 1.6c-1.06.24-2.12.51-3.19.72-.678.128-1.362.222-2.05.28-.85.087-1.705.123-2.56.11-1.46-.05-2.93-.16-4.39-.28a42.893 42.893 0 0 1-9.82-2.11c-1.75-.57-3.51-1.11-5.27-1.67a2.758 2.758 0 0 1-.36-.16c.12-.05.243-.091.37-.12.57-.09 1.15-.14 1.72-.23a7.662 7.662 0 0 0 2.46-.86 7.45 7.45 0 0 0 .9-.66c.53-.408.769-1.09.61-1.74a5.056 5.056 0 0 0-2.55-3.36c-.04-.02-.09-.04-.14-.06-.05 0-.14-.02-.14 0v.13l.27.24a5.326 5.326 0 0 1 1.88 2.79 1.52 1.52 0 0 1-.69 1.78 7.289 7.289 0 0 1-2.45 1c-1.179.249-2.386.35-3.59.3-1.19.24-2.41-.35-3.68-.67a4.013 4.013 0 0 1-.49-.15 3.764 3.764 0 0 1-.35-.17c.103-.075.214-.139.33-.19.46-.18.95-.3 1.39-.51a31.212 31.212 0 0 1 4.06-1.57c.212-.069.416-.16.61-.27.04-.02.16-.12.1-.15s-.17-.09-.17-.09l-1.2.14c-.196.05-.398.07-.6.06.1-.17.19-.34.28-.52.12-.207.221-.424.3-.65a2.38 2.38 0 0 1 .65-1c.76-.76 1.52-1.52 2.23-2.33a11.588 11.588 0 0 0 2-3.11c.089-.348.281-.662.55-.9a.563.563 0 0 0 .16-.41c.12-.48.17-.6.63-.6a16.687 16.687 0 0 0 5.5-1.75c1.37-.69 2.77-1.32 4.18-1.93.625-.233 1.263-.43 1.91-.59h.14c.01.043.01.087 0 .13-.12.11-.29.23-.12.38a.617.617 0 0 0 .46.09c.71-.15 1.42-.38 2.14-.49a12.562 12.562 0 0 1 3.57-.08l2 .28a.65.65 0 0 1 .22.11l-.18.11a.654.654 0 0 0-.17.12.2.2 0 0 0-.08.12.194.194 0 0 0 .135.239l.005.001a1.3 1.3 0 0 0 .29.06 2.997 2.997 0 0 1 1.87.63 10.497 10.497 0 0 1 2.36 2.1c.72.825 1.356 1.72 1.9 2.67a10.35 10.35 0 0 1 1.25 3.82 11.98 11.98 0 0 1-.08 2.8v.15c.05.06-.01.24.05.18a.3.3 0 0 1 .18-.06c.092-.099.179-.202.26-.31l.22-.24c.06.098.11.202.15.31.21.81.42 1.62.61 2.43zm-17.13 6.46c.209.03.421.03.63 0-.04-.28-.3-.28-.49-.36a7.118 7.118 0 0 1-1.1-.49 8.829 8.829 0 0 1-3.51-4.47 11.18 11.18 0 0 1-.6-4.48 5.869 5.869 0 0 1 1-3c.34-.44.68-.87 1-1.31a.485.485 0 0 0 0-.17h-.14c-.07.04-.14.09-.21.14a5.577 5.577 0 0 0-1.81 2.37 6.826 6.826 0 0 0-.56 2.85c.05.53.09 1.02.15 1.53a10.92 10.92 0 0 0 1.76 4.73 6.474 6.474 0 0 0 3.88 2.66z"/><path fill="#E8B2D8" d="m63.859 29.609.27.2a7.726 7.726 0 0 1-5.07 3.23c-1.655.29-3.324.491-5 .6-.426.03-.854.03-1.28 0-1.07-.07-2.14-.15-3.22-.21h-1.07a37.623 37.623 0 0 1-10.06-1.44c-2.33-.66-4.62-1.45-7-2.13-3.23-.95-6.463-1.873-9.7-2.77a33.717 33.717 0 0 0-5.54-1 24.838 24.838 0 0 0-6.33.1c-.19.025-.377.065-.56.12l-.09-.36a18.287 18.287 0 0 1 5-.58c.391.013.782.047 1.17.1.29-.002.581.012.87.04.29.03.58.06.87.1a51.973 51.973 0 0 1 8.44 1.89c3.72 1.12 7.43 2.32 11.15 3.45 1.46.44 2.93.82 4.41 1.17 2.993.626 6.043.934 9.1.92h3.22c.333.03.667.03 1 0 1.15-.1 2.3-.2 3.45-.36a8.65 8.65 0 0 0 5.76-2.79c.03-.06.13-.17.21-.28z"/><path fill="#E8B2D8" d="M48.479 31.339c-.209.03-.421.03-.63 0a6.474 6.474 0 0 1-3.88-2.66 10.933 10.933 0 0 1-1.76-4.73c-.06-.51-.1-1-.15-1.53a6.826 6.826 0 0 1 .56-2.85 5.577 5.577 0 0 1 1.81-2.37c.07-.05.14-.1.21-.14h.14c.01.056.01.114 0 .17-.32.44-.66.87-1 1.31a5.869 5.869 0 0 0-1 3 11.18 11.18 0 0 0 .6 4.48 8.829 8.829 0 0 0 3.51 4.47c.352.194.72.358 1.1.49.19.08.45.08.49.36z"/><path fill="#FFD2F1" d="M35.069 13.389a.519.519 0 0 1-.23.66c-.1.09-.17.209-.2.34a13.563 13.563 0 0 1-1.84 3.36c-.63.76-1.34 1.44-2 2.15-.2.2-.25.17-.32-.09a1.139 1.139 0 0 0-.06-.25c-.08-.14-.21-.16-.3 0a2.275 2.275 0 0 0-.15.39c-.99 3.13-3.33 4.65-6.38 5.31a2.612 2.612 0 0 1-1-.05c-1.52-.28-3.01-.62-4.52-.88a23.653 23.653 0 0 0-5.31-.23c-1.008.06-2.01.19-3 .39a2.107 2.107 0 0 1-1.63-.41c-.24-.15-.43-.41-.77-.21-.04.03-.23-.06-.23-.13a3.105 3.105 0 0 1-.21-.41c-.14-.27-.24-.58-.64-.58-.07 0-.22-.17-.22-.29a6.476 6.476 0 0 1-.11-2.28c.01-.157.04-.311.09-.46a.7.7 0 0 0-.34-.87 8.865 8.865 0 0 1-2.13-2.19 4.397 4.397 0 0 1-.84-3.14c.011-.218.087-.427.22-.6.52-.54 1.06-1.06 1.63-1.55A11.857 11.857 0 0 1 8.889 9.2a5.21 5.21 0 0 1 .55-.22c.04-.01.1-.1.1-.1a.4.4 0 0 0-.1-.15h-.09c-.6-.18-.61-.22-.2-.65a17.245 17.245 0 0 1 9.16-5.1c.89-.19 1.77-.38 2.66-.53.63-.1 1.26-.12 1.89-.18H23c-.04-.04-.13-.11-.13-.11l-.51-.06a1.624 1.624 0 0 1-.31-.1.978.978 0 0 1 .24-.15c.7-.23 1.39-.49 2.1-.67a15.75 15.75 0 0 1 3.28-.5c.136-.01.274-.01.41 0a1.6 1.6 0 0 1 1.45.91 16.543 16.543 0 0 1 1.57 5.33c.04.35.06.68.11 1 .047.124.115.239.2.34a.966.966 0 0 0 .25-.2c.12-.15.22-.11.34 0a15.225 15.225 0 0 1 2.7 3.13c.13.23.17.53 0 .68s-.07.34 0 .52c.129.319.269.659.369.999zm-2.86-2.99a.563.563 0 0 0-.15-.15.964.964 0 0 0-.24 0 2.33 2.33 0 0 0-1.38.52c-.417.377-.805.785-1.16 1.22-.82 1.05-1.62 2.12-2.42 3.18a2.6 2.6 0 0 0-.22.35c-.09.2-.02.37.2.37.359.072.731-.032 1-.28a3.439 3.439 0 0 0 1.26-1.82c.119-.48.28-.948.48-1.4.313-.59.758-1.1 1.3-1.49.288-.181.602-.319.93-.41.1.005.2.005.3 0 .04-.01.1-.089.1-.09zm-12.63 9.1c.35-.2.47-.35.42-.56s-.23-.3-.65-.26a21.95 21.95 0 0 0-3.76.72 5.972 5.972 0 0 0-2.24 1.18c-.229.228-.41.5-.53.8a.063.063 0 0 0-.01.04.316.316 0 0 0 .195.402l.025.008c.15.07.3-.03.23-.18a.472.472 0 0 1 .2-.62c.222-.19.459-.361.71-.51a5.174 5.174 0 0 1 3.05-.69h.92c.498-.003.99-.115 1.44-.33z"/><path fill="#9DD0D8" d="M32.059 10.249c.059.04.11.091.15.15 0 0-.06.08-.1.09-.1.005-.2.005-.3 0a3.515 3.515 0 0 0-.93.41c-.542.39-.987.9-1.3 1.49-.2.452-.361.92-.48 1.4a3.439 3.439 0 0 1-1.26 1.82 1.144 1.144 0 0 1-1 .28c-.22 0-.29-.17-.2-.37a2.6 2.6 0 0 1 .22-.35c.8-1.06 1.6-2.13 2.42-3.18.355-.435.743-.843 1.16-1.22a2.33 2.33 0 0 1 1.38-.52c.08-.01.16-.01.24 0z"/><path fill="#FFD2F1" d="M27.439 32.389a.674.674 0 0 1-.2.93 5.594 5.594 0 0 1-1.85.86 25.763 25.763 0 0 1-5 .95c-1.07.12-2.14.22-3.21.29a17.032 17.032 0 0 1-3.77-.32c-1.74-.26-3.48-.54-5.2-.9a18.48 18.48 0 0 1-5.78-2.22 3.36 3.36 0 0 1-.52-.4c-.3-.26-.58-.54-.86-.81a1.007 1.007 0 0 1-.29-1.12 3.23 3.23 0 0 1 1.21-1.45 11.958 11.958 0 0 1 3.4-1.9 27.195 27.195 0 0 1 5.17-1.45 15.675 15.675 0 0 1 4.43-.23c.44.05.89.09 1.34.12l-.06.77a8.43 8.43 0 0 0-.87-.04 11.467 11.467 0 0 0-1.17-.1 18.287 18.287 0 0 0-5 .58 14.782 14.782 0 0 0-3.2 1.23c-.46.24-.88.53-1.32.8a1.084 1.084 0 0 0-.24.18c-.42.41-.38.79.12 1.08l.23.11c.14.07.46.12 0 .29a.101.101 0 0 0 0 .08.35.35 0 0 0 .09.09h.77a43.19 43.19 0 0 1 4.94-.35c1.53.07 3.07.16 4.6.28 2.65.2 5.28.68 7.9 1.1.56.09 1.12.17 1.68.23.462.054.913.175 1.34.36l-.03.07.44.2c.26.127.499.292.71.49a.636.636 0 0 1 .2.2z"/><path fill="#E8B2D8" d="m26.279 31.2-.02.05h-.07l-.07.18a4.758 4.758 0 0 0-1.34-.36c-.56-.06-1.12-.14-1.68-.23-2.62-.42-5.25-.9-7.9-1.1-1.53-.12-3.07-.21-4.6-.28a43.19 43.19 0 0 0-4.94.35h-.77a.35.35 0 0 1-.09-.09.101.101 0 0 1 0-.08c.46-.17.14-.22 0-.29l-.23-.11c-.5-.29-.54-.67-.12-1.08.071-.071.152-.131.24-.18.44-.27.86-.56 1.32-.8a14.782 14.782 0 0 1 3.2-1.23l.04.37c.02 0 .03-.01.05-.01l.01.03c-.588.169-1.16.39-1.709.66-.86.42-1.69.88-2.53 1.34-.14.08-.23.27-.34.41.14.07.28.17.43.23.47.158.973.192 1.46.1.857-.13 1.723-.2 2.59-.21 1.81 0 3.62 0 5.43.11 1.617.096 3.225.313 4.81.65 1.16.23 2.32.44 3.48.65 1.146.185 2.269.494 3.349.92z"/><path fill="#E8B2D8" d="m26.259 31.249-.08.2a.142.142 0 0 0-.06-.02l.07-.18h.07z"/><path fill="#9DD0D8" d="M20 18.939c.05.21-.07.36-.42.56-.45.214-.942.327-1.44.33h-.92a5.174 5.174 0 0 0-3.05.69c-.251.149-.488.32-.71.51a.472.472 0 0 0-.2.62c.07.15-.08.25-.23.18a.316.316 0 0 1-.22-.41.063.063 0 0 1 .01-.04c.12-.3.301-.572.53-.8a5.972 5.972 0 0 1 2.24-1.18 21.95 21.95 0 0 1 3.76-.72c.419-.04.599.04.65.26z"/><path fill="#E8B2D8" d="m9.209 25.949.09.36c-.02 0-.03.01-.05.01l-.04-.37z"/><path fill="#FFD2F1" d="M7.709 24.7c.03-.05.15-.04.13 0s-.07.12-.07.12a2.25 2.25 0 0 1-.24.08L4.6 25.959l-.39.12a2.97 2.97 0 0 1-1.69-.65.12.12 0 0 1-.05-.05.32.32 0 0 1 .048-.449l.002-.001c.168-.192.352-.369.55-.53.722-.46 1.498-.83 2.31-1.1h.14c.32.3.84.26 1.07.69.04.07.12.15.12.23.229.37.499.65.999.481z"/></svg>